<svg width="16" height="16" viewBox="0 0 16 16" fill="none" xmlns="http://www.w3.org/2000/svg">
<path d="M9.46602 8.01333L15.6963 1.78291C16.1018 1.37764 16.1018 0.722357 15.6963 0.317136C15.2911 -0.0881339 14.6358 -0.0881339 14.2306 0.317136L8.0001 6.5475L1.76987 0.317136C1.36441 -0.0881339 0.709368 -0.0881339 0.304098 0.317136C-0.101366 0.722406 -0.101366 1.37764 0.304098 1.78291L6.53427 8.01333L0.304147 14.2437C-0.101317 14.649 -0.101317 15.3043 0.304147 15.7095C0.400279 15.8059 0.514513 15.8823 0.640285 15.9345C0.766058 15.9866 0.90089 16.0133 1.03703 16.0132C1.30235 16.0132 1.56777 15.9116 1.76992 15.7095L8.0001 9.4791L14.2306 15.7095C14.3267 15.8059 14.4409 15.8823 14.5667 15.9344C14.6925 15.9866 14.8273 16.0133 14.9635 16.0132C15.2288 16.0132 15.4942 15.9116 15.6963 15.7095C16.1018 15.3042 16.1018 14.649 15.6963 14.2437L9.46602 8.01333Z" fill="#000815"/>
</svg>
