<svg width="47" height="47" viewBox="0 0 47 47" fill="none" xmlns="http://www.w3.org/2000/svg">
<rect width="47" height="47" rx="12" fill="#219A82"/>
<path d="M17.0312 13.4375C15.8453 13.4375 14.875 14.4078 14.875 15.5938V29.0775L23.5575 20.395C23.5215 20.2369 23.5 20.0716 23.5 19.9063V13.4375H17.0312ZM24.9375 19.015L27.5178 16.4419L25.1459 14.07C25.0812 14.0053 25.0094 13.9407 24.9375 13.8903V19.015ZM32.3349 13.6488L13.6481 32.3356C13.5794 32.4019 13.5247 32.4812 13.487 32.5689C13.4493 32.6566 13.4295 32.7509 13.4287 32.8464C13.4278 32.9418 13.446 33.0364 13.4822 33.1248C13.5183 33.2131 13.5717 33.2934 13.6392 33.3608C13.7067 33.4283 13.7869 33.4817 13.8752 33.5178C13.9636 33.554 14.0582 33.5722 14.1536 33.5713C14.2491 33.5705 14.3434 33.5507 14.4311 33.513C14.5188 33.4753 14.5981 33.4206 14.6644 33.3519L15.3235 32.6928C15.6239 33.0903 16.0451 33.39 16.5425 33.505C16.7006 33.541 16.8659 33.5625 17.0312 33.5625H29.9687C31.1547 33.5625 32.125 32.5922 32.125 31.4063V21.9403C32.125 21.3653 31.9022 20.8191 31.4925 20.4166L29.5461 18.4702L33.3526 14.6637C33.4212 14.5973 33.4758 14.5179 33.5133 14.4302C33.5509 14.3424 33.5706 14.2481 33.5713 14.1527C33.5719 14.0572 33.5536 13.9626 33.5174 13.8743C33.4811 13.7861 33.4276 13.7059 33.36 13.6385C33.2925 13.5711 33.2121 13.5179 33.1238 13.4819C33.0354 13.4458 32.9407 13.4278 32.8453 13.4287C32.7499 13.4297 32.6556 13.4497 32.5679 13.4875C32.4803 13.5252 32.4011 13.5801 32.3349 13.6488ZM28.4953 21.5522C28.4306 21.7822 28.2509 21.9619 28.0209 22.0266C27.9538 22.0496 27.8834 22.0617 27.8125 22.0625H25.9538L27.3913 20.625H27.8125C28.2078 20.625 28.5312 20.9485 28.5312 21.3438C28.5312 21.4157 28.5169 21.4875 28.4953 21.5522Z" fill="white"/>
</svg>
