<svg width="47" height="47" viewBox="0 0 47 47" fill="none" xmlns="http://www.w3.org/2000/svg">
<rect width="47" height="47" rx="12" fill="#219A82"/>
<g clip-path="url(#clip0_2010_94)">
<path d="M23.5 21.2822C25.6584 21.2822 27.4082 19.5325 27.4082 17.374C27.4082 15.2156 25.6584 13.4658 23.5 13.4658C21.3416 13.4658 19.5918 15.2156 19.5918 17.374C19.5918 19.5325 21.3416 21.2822 23.5 21.2822Z" fill="white"/>
<path d="M31.4062 21.2822C32.7708 21.2822 33.877 20.176 33.877 18.8115C33.877 17.4469 32.7708 16.3408 31.4062 16.3408C30.0417 16.3408 28.9355 17.4469 28.9355 18.8115C28.9355 20.176 30.0417 21.2822 31.4062 21.2822Z" fill="white"/>
<path d="M15.5938 21.2822C16.9583 21.2822 18.0645 20.176 18.0645 18.8115C18.0645 17.4469 16.9583 16.3408 15.5938 16.3408C14.2292 16.3408 13.123 17.4469 13.123 18.8115C13.123 20.176 14.2292 21.2822 15.5938 21.2822Z" fill="white"/>
<path d="M18.0281 23.5009C17.0555 22.7041 16.1747 22.8096 15.0502 22.8096C13.3683 22.8096 12 24.1698 12 25.8413V30.7472C12 31.4732 12.5925 32.0635 13.3212 32.0635C16.4669 32.0635 16.0879 32.1204 16.0879 31.9278C16.0879 28.4515 15.6761 25.9021 18.0281 23.5009Z" fill="white"/>
<path d="M24.5696 22.8275C22.6054 22.6637 20.8982 22.8294 19.4256 24.0449C16.9613 26.0187 17.4356 28.6764 17.4356 31.9278C17.4356 32.788 18.1354 33.5009 19.0087 33.5009C28.4909 33.5009 28.8683 33.8068 29.4306 32.5616C29.615 32.1405 29.5645 32.2743 29.5645 28.246C29.5645 25.0464 26.794 22.8275 24.5696 22.8275ZM31.9498 22.8095C30.8191 22.8095 29.9432 22.7051 28.9719 23.5009C31.3063 25.8842 30.9121 28.2597 30.9121 31.9278C30.9121 32.1215 30.5975 32.0634 33.6317 32.0634C34.3864 32.0634 35 31.452 35 30.7005V25.8413C35 24.1697 33.6317 22.8095 31.9498 22.8095Z" fill="white"/>
</g>
<defs>
<clipPath id="clip0_2010_94">
<rect width="23" height="23" fill="white" transform="translate(12 12)"/>
</clipPath>
</defs>
</svg>
