<svg width="47" height="47" viewBox="0 0 47 47" fill="none" xmlns="http://www.w3.org/2000/svg">
<rect width="47" height="47" rx="12" fill="#219A82"/>
<g clip-path="url(#clip0_2010_212)">
<path d="M21.4205 21.1258V21.3338H25.5795V21.1258C25.5471 18.3162 21.4529 18.3162 21.4205 21.1258Z" fill="white"/>
<path d="M33.1927 16.2136C29.2925 16.2529 25.5402 13.843 24.1054 12.8032C23.9292 12.6759 23.7174 12.6074 23.5 12.6074C23.2827 12.6074 23.0708 12.6759 22.8946 12.8032C21.4598 13.843 17.6982 16.2436 13.8073 16.2136C13.6691 16.2122 13.532 16.2382 13.4039 16.29C13.2758 16.3418 13.1592 16.4185 13.0609 16.5156C12.9625 16.6126 12.8843 16.7282 12.8308 16.8556C12.7773 16.983 12.7495 17.1198 12.7491 17.2579C12.7514 22.593 13.8188 30.2247 23.031 34.8874C23.1762 34.9614 23.337 35 23.5 35C23.6631 35 23.8238 34.9614 23.969 34.8874C33.1812 30.2247 34.2486 22.593 34.251 17.2579C34.2489 16.9792 34.1363 16.7127 33.9379 16.5169C33.7395 16.3211 33.4715 16.212 33.1927 16.2136ZM27.3124 26.7635C27.3124 27.2231 27.1298 27.6639 26.8048 27.9889C26.4799 28.3138 26.0391 28.4964 25.5795 28.4964H21.4205C20.9609 28.4964 20.5202 28.3138 20.1952 27.9889C19.8702 27.6639 19.6876 27.2231 19.6876 26.7635V23.0666C19.6878 22.7296 19.7862 22.3999 19.9709 22.118C20.1556 21.8361 20.4185 21.6141 20.7274 21.4793V21.1212C20.7689 17.4127 26.2311 17.4127 26.2727 21.1212V21.4793C26.5816 21.6141 26.8444 21.8361 27.0291 22.118C27.2138 22.3999 27.3122 22.7296 27.3124 23.0666V26.7635Z" fill="white"/>
<path d="M24.0675 24.5172C24.0623 24.4862 24.0638 24.4544 24.0718 24.424C24.0797 24.3936 24.094 24.3652 24.1137 24.3407C24.1911 24.2287 24.2364 24.0978 24.2447 23.962C24.253 23.8261 24.224 23.6906 24.1608 23.5701C24.0976 23.4496 24.0027 23.3487 23.8862 23.2782C23.7698 23.2078 23.6363 23.1706 23.5002 23.1706C23.3642 23.1706 23.2307 23.2078 23.1143 23.2782C22.9978 23.3487 22.9029 23.4496 22.8397 23.5701C22.7765 23.6906 22.7475 23.8261 22.7558 23.962C22.7641 24.0978 22.8094 24.2287 22.8868 24.3407C22.9064 24.3649 22.9206 24.393 22.9286 24.4232C22.9365 24.4533 22.9381 24.4848 22.933 24.5156C22.8787 24.7861 22.7251 25.5597 22.6167 26.0967C22.6035 26.1636 22.6053 26.2327 22.622 26.2989C22.6387 26.3651 22.6699 26.4267 22.7133 26.4794C22.7566 26.5322 22.8111 26.5746 22.8729 26.6037C22.9346 26.6329 23.002 26.648 23.0702 26.648H23.9298C23.9982 26.648 24.0657 26.6328 24.1275 26.6036C24.1893 26.5744 24.2439 26.5318 24.2872 26.4789C24.3306 26.426 24.3617 26.3642 24.3783 26.2979C24.3949 26.2315 24.3965 26.1623 24.3831 26.0953L24.0675 24.5172Z" fill="white"/>
</g>
<defs>
<clipPath id="clip0_2010_212">
<rect width="23" height="23" fill="white" transform="translate(12 12)"/>
</clipPath>
</defs>
</svg>
