<svg width="47" height="47" viewBox="0 0 47 47" fill="none" xmlns="http://www.w3.org/2000/svg">
<rect width="47" height="47" rx="12" fill="#219A82"/>
<g clip-path="url(#clip0_2010_52)">
<path d="M28.6586 19.6393C30.0838 16.2755 27.6318 12.2874 24.0052 12.0246C18.8671 11.5564 15.9264 17.8568 19.5777 21.4875C22.2966 24.3009 27.2498 23.2741 28.6586 19.6393ZM21.4464 17.5569C21.4484 17.432 21.4566 17.3073 21.4711 17.1832H21.1959C21.087 17.1832 20.9825 17.1399 20.9055 17.0629C20.8284 16.9859 20.7852 16.8814 20.7852 16.7725C20.7852 16.6635 20.8284 16.5591 20.9055 16.482C20.9825 16.405 21.087 16.3617 21.1959 16.3617H21.66C22.0255 15.3719 22.8264 14.6819 23.7588 14.6819C24.0478 14.6876 24.3326 14.7533 24.5949 14.8749C24.8572 14.9965 25.0914 15.1714 25.2825 15.3883C25.3566 15.4684 25.3958 15.5746 25.3916 15.6836C25.3873 15.7926 25.34 15.8954 25.2599 15.9695C25.1799 16.0436 25.0737 16.0828 24.9647 16.0786C24.8557 16.0743 24.7528 16.027 24.6788 15.9469C24.5646 15.8131 24.4239 15.7046 24.2655 15.6282C24.1071 15.5519 23.9345 15.5093 23.7588 15.5033C23.4981 15.5218 23.2475 15.6117 23.0345 15.7631C22.8215 15.9145 22.6543 16.1216 22.5513 16.3617H24.0463C24.1552 16.3617 24.2597 16.405 24.3367 16.482C24.4137 16.5591 24.457 16.6635 24.457 16.7725C24.457 16.8814 24.4137 16.9859 24.3367 17.0629C24.2597 17.1399 24.1552 17.1832 24.0463 17.1832H22.2966C22.2787 17.307 22.2691 17.4318 22.2679 17.5569C22.2689 17.6807 22.2786 17.8042 22.2966 17.9266H24.0463C24.1552 17.9266 24.2597 17.9698 24.3367 18.0469C24.4137 18.1239 24.457 18.2284 24.457 18.3373C24.457 18.4462 24.4137 18.5507 24.3367 18.6277C24.2597 18.7047 24.1552 18.748 24.0463 18.748H22.5513C22.6542 18.9886 22.8213 19.1963 23.0342 19.3484C23.2472 19.5005 23.4978 19.5911 23.7588 19.6105C23.9345 19.6046 24.1071 19.5621 24.2655 19.4857C24.4239 19.4093 24.5647 19.3008 24.6788 19.1669C24.7527 19.0884 24.8546 19.0422 24.9623 19.0383C25.0701 19.0344 25.175 19.0731 25.2544 19.146C25.3339 19.219 25.3813 19.3203 25.3866 19.428C25.3919 19.5357 25.3545 19.6411 25.2825 19.7214C25.0921 19.9396 24.8582 20.1155 24.5958 20.2379C24.3334 20.3602 24.0483 20.4263 23.7588 20.4319C22.8264 20.4319 22.0255 19.7378 21.66 18.748H21.1959C21.087 18.748 20.9825 18.7047 20.9055 18.6277C20.8284 18.5507 20.7852 18.4462 20.7852 18.3373C20.7852 18.2284 20.8284 18.1239 20.9055 18.0469C20.9825 17.9698 21.087 17.9266 21.1959 17.9266H21.4711C21.4587 17.8034 21.4464 17.6801 21.4464 17.5569Z" fill="white"/>
<path d="M34.4345 22.2579C34.2526 22.0585 34.0318 21.8983 33.7858 21.7872C33.5398 21.6761 33.2736 21.6164 33.0037 21.6118C32.7338 21.6072 32.4658 21.6577 32.2161 21.7604C31.9664 21.863 31.7403 22.0156 31.5517 22.2087L28.5009 25.2599C28.5663 25.4136 28.6171 25.5731 28.6529 25.7363C28.742 26.1446 28.7388 26.5677 28.6437 26.9747C28.5485 27.3817 28.3638 27.7623 28.1029 28.0888C27.842 28.4153 27.5116 28.6795 27.1356 28.8622C26.7597 29.0448 26.3477 29.1412 25.9298 29.1444L22.4235 29.1485C22.3146 29.1486 22.2101 29.1055 22.133 29.0285C22.0559 28.9516 22.0125 28.8472 22.0124 28.7382C22.0123 28.6293 22.0554 28.5248 22.1324 28.4477C22.2093 28.3706 22.3138 28.3272 22.4227 28.3271L25.9302 28.323C26.3386 28.3174 26.7353 28.1861 27.0663 27.9469C27.3973 27.7077 27.6465 27.3722 27.78 26.9863C27.9134 26.6003 27.9246 26.1825 27.812 25.79C27.6995 25.3974 27.4686 25.0491 27.1509 24.7925C26.7762 24.5109 26.3179 24.3631 25.8493 24.3727H19.4216C18.8112 24.3789 18.2274 24.6236 17.7951 25.0545L12.124 30.7298C12.0469 30.8073 12.0037 30.9121 12.0037 31.0214C12.0037 31.1307 12.0469 31.2355 12.124 31.313L15.6923 34.8813C15.7703 34.9574 15.8749 35 15.9839 35C16.0928 35 16.1975 34.9574 16.2755 34.8813L17.7335 33.4274C18.6946 33.296 24.4557 32.5037 26.5048 32.2244C27.0626 32.1444 27.5797 31.8865 27.9793 31.4892L34.4222 25.0381C34.7878 24.6685 34.9939 24.1704 34.9962 23.6505C34.9985 23.1307 34.7968 22.6307 34.4345 22.2579Z" fill="white"/>
</g>
<defs>
<clipPath id="clip0_2010_52">
<rect width="23" height="23" fill="white" transform="translate(12 12)"/>
</clipPath>
</defs>
</svg>
