<svg width="47" height="47" viewBox="0 0 47 47" fill="none" xmlns="http://www.w3.org/2000/svg">
<rect width="47" height="47" rx="12" fill="#219A82"/>
<g clip-path="url(#clip0_2010_322)">
<path d="M29.8222 17.1591C29.7761 17.1129 29.7212 17.0762 29.6609 17.0513C29.6005 17.0263 29.5358 17.0135 29.4704 17.0136C29.4051 17.0135 29.3404 17.0263 29.2801 17.0513C29.2197 17.0762 29.1649 17.1129 29.1187 17.1591C28.9247 17.353 28.9247 17.6687 29.1187 17.8626C29.3127 18.0567 29.6283 18.0566 29.8222 17.8626C29.8685 17.8165 29.9053 17.7617 29.9303 17.7013C29.9553 17.6409 29.9681 17.5762 29.9679 17.5108C29.9681 17.4455 29.9553 17.3807 29.9303 17.3204C29.9053 17.26 29.8686 17.2052 29.8222 17.1591ZM21.5867 24.46C21.452 24.3253 21.3249 24.2601 21.205 24.2641C21.0852 24.2682 20.966 24.3294 20.8476 24.4479L20.4477 24.8478L21.1989 25.599L21.5988 25.1991C21.7173 25.0807 21.7785 24.9615 21.7826 24.8417C21.7866 24.7219 21.7214 24.5947 21.5867 24.46Z" fill="white"/>
<path d="M34.9666 20.8786L33.8708 14.8175C33.7162 13.9623 33.0378 13.2838 32.1826 13.1292L26.1215 12.0335C25.7887 11.9733 25.4463 11.9946 25.1235 12.0956C24.8008 12.1966 24.5073 12.3743 24.2681 12.6134L12.6134 24.2681C12.2179 24.6637 12 25.1896 12 25.7489C12 26.3083 12.2178 26.8342 12.6134 27.2297L19.7703 34.3866C20.1659 34.7822 20.6918 35 21.2511 35C21.8105 35 22.3365 34.7822 22.7319 34.3866L34.3866 22.7319C34.6257 22.4928 34.8033 22.1992 34.9043 21.8765C35.0053 21.5537 35.0267 21.2113 34.9666 20.8786ZM20.6274 29.3734C20.5991 29.4691 20.5419 29.5599 20.4558 29.646C20.3695 29.7323 20.2787 29.7895 20.1831 29.8177C20.0875 29.846 20.0089 29.8291 19.9468 29.7671L17.3821 27.2024C17.3202 27.1405 17.2992 27.0658 17.3195 26.9783C17.3396 26.8908 17.3874 26.8093 17.4628 26.7339L18.8644 25.3323C18.9263 25.2704 19.0004 25.2502 19.0865 25.2717C19.1728 25.2932 19.2521 25.3404 19.3248 25.4131C19.4029 25.4913 19.4521 25.574 19.4723 25.6615C19.4924 25.7491 19.4729 25.8224 19.4137 25.8816L18.3675 26.9278L19.0502 27.6104L19.6601 27.0005C19.7192 26.9413 19.7899 26.919 19.8721 26.9338C19.9542 26.9487 20.029 26.9898 20.0962 27.057C20.1582 27.119 20.1972 27.1904 20.2134 27.2711C20.2294 27.3519 20.2066 27.4233 20.1447 27.4852L19.5348 28.0951L20.5769 29.1371C20.6389 29.1991 20.6557 29.2779 20.6274 29.3734ZM24.0606 25.8796C24.0458 26.0345 23.9912 26.1591 23.897 26.2533C23.8027 26.3476 23.6964 26.3758 23.5779 26.3381L21.9502 25.8171L21.6836 26.0837L22.657 27.057C22.719 27.119 22.7357 27.1978 22.7075 27.2934C22.6791 27.3891 22.6219 27.4799 22.5358 27.566C22.4496 27.6522 22.3588 27.7094 22.2632 27.7376C22.1676 27.766 22.0889 27.7491 22.0269 27.6871L19.4581 25.1183C19.407 25.0671 19.3808 25.0046 19.3794 24.9304C19.3781 24.8565 19.4057 24.7911 19.4623 24.7346L20.2984 23.8985C20.9607 23.2361 21.5801 23.193 22.1563 23.7692C22.5763 24.1893 22.6867 24.6256 22.4875 25.0778L23.8728 25.4778C23.9052 25.4832 23.9361 25.5007 23.9657 25.5303C24.0438 25.6085 24.0754 25.7248 24.0606 25.8796ZM26.2921 23.8097L24.8543 25.2476C24.7789 25.323 24.6975 25.3707 24.6099 25.3909C24.5224 25.4112 24.4477 25.3903 24.3857 25.3283L21.821 22.7635C21.7591 22.7016 21.7381 22.627 21.7584 22.5394C21.7785 22.4519 21.8263 22.3705 21.9017 22.295L23.3397 20.8572C23.4016 20.7953 23.4757 20.7751 23.5617 20.7965C23.648 20.8181 23.7273 20.8652 23.8001 20.938C23.8781 21.0161 23.9273 21.0989 23.9475 21.1864C23.9677 21.274 23.9481 21.3473 23.8889 21.4065L22.8064 22.489L23.4891 23.1716L24.095 22.5657C24.1541 22.5065 24.2249 22.4842 24.307 22.499C24.3891 22.5138 24.4639 22.5549 24.5312 22.6222C24.5931 22.6841 24.6321 22.7555 24.6483 22.8363C24.6644 22.9171 24.6415 22.9885 24.5796 23.0504L23.9737 23.6563L24.6603 24.3429L25.7428 23.2604C25.8019 23.2012 25.8754 23.1817 25.9629 23.2018C26.0505 23.2221 26.1332 23.2712 26.2113 23.3493C26.2839 23.4219 26.3311 23.5014 26.3527 23.5876C26.3743 23.6738 26.354 23.7477 26.2921 23.8097ZM28.4691 21.6327L27.0311 23.0706C26.9557 23.1461 26.8743 23.1939 26.7867 23.214C26.6992 23.2342 26.6246 23.2134 26.5626 23.1514L23.9978 20.5866C23.9359 20.5247 23.915 20.45 23.9352 20.3625C23.9554 20.275 24.0032 20.1936 24.0786 20.1181L25.5165 18.6803C25.5784 18.6184 25.6525 18.5981 25.7386 18.6196C25.8248 18.6412 25.9041 18.6883 25.9769 18.7611C26.0549 18.8392 26.1041 18.922 26.1244 19.0094C26.1445 19.097 26.1249 19.1704 26.0657 19.2296L24.9832 20.312L25.6659 20.9947L26.2718 20.3888C26.3309 20.3296 26.4017 20.3073 26.4838 20.3221C26.5659 20.3369 26.6407 20.3781 26.7079 20.4453C26.7699 20.5073 26.8089 20.5787 26.8251 20.6594C26.8412 20.7401 26.8183 20.8116 26.7564 20.8735L26.1505 21.4794L26.8371 22.166L27.9196 21.0835C27.9788 21.0243 28.0522 21.0048 28.1397 21.025C28.2273 21.0452 28.31 21.0943 28.3881 21.1724C28.4608 21.245 28.5079 21.3245 28.5296 21.4106C28.5513 21.4968 28.531 21.5708 28.4691 21.6327ZM30.776 18.8165C30.4161 19.1764 29.9433 19.3563 29.4705 19.3563C28.9977 19.3563 28.5249 19.1764 28.165 18.8164C27.4451 18.0965 27.4451 16.9253 28.165 16.2054C28.8848 15.4855 30.0562 15.4855 30.776 16.2054C31.1248 16.5541 31.3168 17.0177 31.3168 17.5109C31.3168 18.004 31.1247 18.4677 30.776 18.8165Z" fill="white"/>
</g>
<defs>
<clipPath id="clip0_2010_322">
<rect width="23" height="23" fill="white" transform="translate(12 12)"/>
</clipPath>
</defs>
</svg>
