<svg width="182" height="45" viewBox="0 0 182 45" fill="none" xmlns="http://www.w3.org/2000/svg">
<g clip-path="url(#clip0_493_7146)">
<path d="M63.7009 12.4961H72.4837C77.3345 12.4961 79.3063 15.0592 79.3063 17.8758C79.3063 20.2917 78.0026 21.8603 76.5195 22.4803C77.9506 22.9953 79.9367 24.4982 79.9367 27.3976C79.9367 31.1522 77.0499 33.6981 72.754 33.6981H63.7009V12.4961ZM71.9598 21.0142C74.4178 21.0142 75.4095 19.9567 75.4095 18.2686C75.4095 16.5804 74.1877 15.6188 72.1938 15.6188H67.5639V21.0142H71.9611H71.9598ZM67.5626 30.5741H72.0287C74.5425 30.5741 75.8995 29.4654 75.8995 27.2964C75.8995 25.385 74.6803 24.1382 71.8285 24.1382H67.5626V30.5754V30.5741Z" fill="black"/>
<path d="M95.8308 29.8396C95.8308 31.3175 95.9516 33.2933 96.0426 33.6979H92.4396C92.3187 33.3735 92.2277 32.5695 92.2095 31.9822C91.6519 32.9228 90.5289 34.0658 87.6823 34.0658C83.9518 34.0658 82.3713 31.5947 82.3713 29.1669C82.3713 25.6015 85.1828 23.9607 89.775 23.9607H92.1458V22.8703C92.1458 21.6604 91.7338 20.3585 89.424 20.3585C87.3391 20.3585 86.9258 21.3175 86.6983 22.488H83.0979C83.3227 19.8987 84.9059 17.5511 89.5605 17.5734C93.6133 17.5944 95.8308 19.2169 95.8308 22.911V29.8409V29.8396ZM92.1549 26.353H90.1389C87.3677 26.353 86.168 27.178 86.168 28.9331C86.168 30.2416 87.0012 31.2794 88.6779 31.2794C91.7611 31.2794 92.1549 29.1407 92.1549 26.797V26.353Z" fill="black"/>
<path d="M100.016 21.9102C100.016 20.561 100.016 19.1238 99.9862 17.9401H103.641C103.723 18.3657 103.775 19.6493 103.787 20.1432C104.348 19.0305 105.613 17.5723 108.439 17.5723C111.5 17.5723 113.62 19.5993 113.62 23.6364V33.6981H109.849V24.0752C109.849 22.0993 109.152 20.7081 107.087 20.7081C104.881 20.7081 103.787 22.1532 103.787 25.0644V33.6981H100.016V21.9102Z" fill="black"/>
<path d="M121.48 17.9399H117.709V33.698H121.48V17.9399Z" fill="black"/>
<path d="M126.123 12.4961H134.556C138.884 12.4961 141.831 14.9514 141.831 18.9254C141.831 23.3684 138.554 25.5084 134.428 25.5084H130.066V33.6981H126.123V12.4961ZM130.066 22.299H134.006C136.37 22.299 137.838 21.277 137.838 19.0082C137.838 16.7394 136.213 15.7055 134.106 15.7055H130.066V22.299Z" fill="black"/>
<path d="M144.735 33.698V11.2769H148.505V33.698H144.735Z" fill="black"/>
<path d="M165.942 29.1144C165.942 30.6383 165.951 32.4486 165.972 33.698H162.283C162.222 33.2776 162.192 32.3947 162.172 31.6972C161.301 33.3341 159.881 34.0658 157.735 34.0658C154.743 34.0658 152.548 32.3264 152.548 28.2382V17.9399H156.309V27.4617C156.309 29.3128 156.88 30.9089 158.99 30.9089C161.259 30.9089 162.172 29.6648 162.172 26.2702V17.9399H165.942V29.1144Z" fill="black"/>
<path d="M172.401 29.037C172.768 30.4492 173.866 31.2585 175.645 31.2585C177.425 31.2585 178.16 30.5385 178.16 29.4245C178.16 28.3105 177.475 27.764 174.993 27.1518C170.124 25.9432 169.259 24.4258 169.259 22.2306C169.259 20.0354 170.879 17.5735 175.349 17.5735C179.819 17.5735 181.457 20.0971 181.614 22.2516H178.014C177.847 21.5225 177.335 20.3152 175.183 20.3152C173.501 20.3152 172.977 21.0956 172.977 21.914C172.977 22.8297 173.514 23.2776 176.155 23.9056C181.197 25.0984 182.004 26.8312 182.004 29.1513C182.004 31.8115 179.972 34.0659 175.511 34.0659C171.05 34.0659 169.049 31.8391 168.689 29.0383H172.405L172.401 29.037Z" fill="black"/>
<path d="M57.3461 30.8723V34.4298C57.3461 34.6177 57.1953 34.77 57.0095 34.77H51.4788C50.9862 34.77 50.5871 35.172 50.5871 35.6686V41.2348C50.5871 41.4227 50.4364 41.5725 50.2518 41.5725H46.7579C46.5707 41.5725 46.4226 41.4227 46.4226 41.2348V35.6686C46.4226 35.1852 46.0456 34.7924 45.5738 34.7727C45.5595 34.77 45.5452 34.77 45.5309 34.77H39.9989C39.8144 34.77 39.6636 34.6177 39.6636 34.4298V30.8723C39.6636 30.6844 39.8144 30.532 39.9989 30.532H45.5309C45.5452 30.532 45.5595 30.532 45.5738 30.5294C46.0456 30.5097 46.4226 30.1156 46.4226 29.6334V24.0409C46.4226 23.8531 46.5707 23.7007 46.7579 23.7007H50.2518C50.4364 23.7007 50.5871 23.8531 50.5871 24.0409V29.6334C50.5871 30.1287 50.9862 30.532 51.4788 30.532H57.0095C57.1953 30.532 57.3461 30.6844 57.3461 30.8723Z" fill="#219A82"/>
<path d="M13.6077 25.2535C13.6077 21.2322 14.7034 19.2012 17.7904 19.2012C20.7098 19.2012 21.9186 21.6132 21.9186 24.9014C21.9186 28.631 20.4771 31.1284 17.7306 31.1284C14.5812 31.1284 13.6077 28.5772 13.6077 25.2535Z" fill="#219A82"/>
<path d="M26.7019 29.3853V44.5521C25.2669 44.8464 23.7825 45.0001 22.2618 45.0001C9.96691 45.0001 0 34.9265 0 22.5001C0 15.3482 3.30151 8.97537 8.44873 4.85425V28.5629C8.44873 30.7016 8.44873 32.8745 8.41104 35.0132H13.5791C13.683 34.5127 13.787 33.7928 13.787 33.1425C14.7346 34.5771 16.0136 35.4704 18.9161 35.4704C22.9247 35.4704 25.5373 32.9086 26.7019 29.3853Z" fill="#219A82"/>
<path d="M31.8608 25.6292C31.8608 21.6539 32.9501 19.6624 36.0189 19.6624C38.5912 19.6624 40.0392 21.7039 40.0392 25.3205C40.0392 29.3392 38.6484 31.5856 35.7889 31.5856C32.9293 31.5856 31.8608 29.3957 31.8608 25.6292Z" fill="#219A82"/>
<path d="M37.008 35.9276C38.365 35.9276 39.6453 35.6096 40.7801 34.9909C38.6081 38.2739 35.6055 40.9473 32.074 42.7024V33.7231C32.8175 34.8779 34.2537 35.9276 37.008 35.9276Z" fill="#219A82"/>
<path d="M26.6642 15.7396C26.6993 17.2386 26.7019 18.731 26.7019 20.2404C25.5932 17.0166 23.1742 14.8253 19.4399 14.8253C16.2749 14.8253 14.6592 16.1088 13.8546 17.3778V1.66054C16.449 0.589858 19.2865 0 22.2618 0C33.5597 0 42.891 8.50499 44.3298 19.5258C42.9702 16.8116 40.563 15.2824 37.7489 15.2824C34.6528 15.2824 32.9111 16.7499 32.074 18.1976C32.074 17.4737 31.9739 16.2625 31.8985 15.7396H26.6642Z" fill="#219A82"/>
</g>
<defs>
<clipPath id="clip0_493_7146">
<rect width="182" height="45" fill="white"/>
</clipPath>
</defs>
</svg>
