<svg width="118" height="30" viewBox="0 0 118 30" fill="none" xmlns="http://www.w3.org/2000/svg">
<path d="M37.7932 23.5039L39.2623 20.1024C40.8498 21.2835 42.9586 21.8976 45.0438 21.8976C46.5839 21.8976 47.5554 21.3071 47.5554 20.4094C47.5317 17.9055 38.3382 19.8661 38.2671 13.5827C38.2434 10.3937 41.0868 7.937 45.1149 7.937C47.508 7.937 49.9012 8.52755 51.6072 9.87401L50.2329 13.3465C48.6691 12.3543 46.7261 11.6457 44.8779 11.6457C43.6221 11.6457 42.7928 12.2362 42.7928 12.9921C42.8165 15.4488 52.0811 14.1024 52.1759 20.1024C52.1759 23.3622 49.4036 25.6535 45.4229 25.6535C42.5084 25.6535 39.8309 24.9685 37.7932 23.5039ZM94.1631 18.874C93.4285 20.1496 92.0542 21.0236 90.4667 21.0236C88.1209 21.0236 86.2253 19.1339 86.2253 16.7953C86.2253 14.4567 88.1209 12.5669 90.4667 12.5669C92.0542 12.5669 93.4285 13.4409 94.1631 14.7165L98.2149 12.4724C96.6984 9.77952 93.7839 7.937 90.4667 7.937C85.5619 7.937 81.5811 11.9055 81.5811 16.7953C81.5811 21.685 85.5619 25.6535 90.4667 25.6535C93.8076 25.6535 96.6984 23.8346 98.2149 21.1181L94.1631 18.874ZM54.2137 0.590545H59.2843V25.3228H54.2137V0.590545ZM100.205 0.590545V25.3228H105.276V17.9055L111.294 25.3228H117.787L110.133 16.5118L117.218 8.29133H111.01L105.276 15.1181V0.590545H100.205ZM74.3542 18.9213C73.6197 20.126 72.1032 21.0236 70.3972 21.0236C68.0514 21.0236 66.1558 19.1339 66.1558 16.7953C66.1558 14.4567 68.0514 12.5669 70.3972 12.5669C72.1032 12.5669 73.6197 13.5118 74.3542 14.7402V18.9213ZM74.3542 8.29133V10.2992C73.5249 8.90551 71.4635 7.937 69.3072 7.937C64.8526 7.937 61.3458 11.8583 61.3458 16.7716C61.3458 21.685 64.8526 25.6535 69.3072 25.6535C71.4635 25.6535 73.5249 24.685 74.3542 23.2913V25.2992H79.4249V8.29133H74.3542Z" fill="#000815"/>
<path d="M6.44523 18.8976C6.44523 20.622 5.04724 22.0157 3.31752 22.0157C1.5878 22.0157 0.18981 20.622 0.18981 18.8976C0.18981 17.1732 1.5878 15.7795 3.31752 15.7795H6.44523V18.8976ZM8.00909 18.8976C8.00909 17.1732 9.40708 15.7795 11.1368 15.7795C12.8665 15.7795 14.2645 17.1732 14.2645 18.8976V26.6929C14.2645 28.4173 12.8665 29.811 11.1368 29.811C9.40708 29.811 8.00909 28.4173 8.00909 26.6929V18.8976Z" fill="#000815"/>
<path d="M11.1365 6.37794C9.40683 6.37794 8.00883 4.98424 8.00883 3.25983C8.00883 1.53542 9.40683 0.141724 11.1365 0.141724C12.8663 0.141724 14.2643 1.53542 14.2643 3.25983V6.37794H11.1365ZM11.1365 7.96062C12.8663 7.96062 14.2643 9.35432 14.2643 11.0787C14.2643 12.8031 12.8663 14.1968 11.1365 14.1968H3.29357C1.56386 14.1968 0.165863 12.8031 0.165863 11.0787C0.165863 9.35432 1.56386 7.96062 3.29357 7.96062H11.1365Z" fill="#000815"/>
<path d="M23.6711 11.0787C23.6711 9.35432 25.0691 7.96062 26.7988 7.96062C28.5285 7.96062 29.9265 9.35432 29.9265 11.0787C29.9265 12.8031 28.5285 14.1968 26.7988 14.1968H23.6711V11.0787ZM22.1072 11.0787C22.1072 12.8031 20.7092 14.1968 18.9795 14.1968C17.2498 14.1968 15.8518 12.8031 15.8518 11.0787V3.25983C15.8518 1.53542 17.2498 0.141724 18.9795 0.141724C20.7092 0.141724 22.1072 1.53542 22.1072 3.25983V11.0787Z" fill="#000815"/>
<path d="M18.9795 23.5748C20.7092 23.5748 22.1072 24.9685 22.1072 26.6929C22.1072 28.4173 20.7092 29.811 18.9795 29.811C17.2498 29.811 15.8518 28.4173 15.8518 26.6929V23.5748H18.9795ZM18.9795 22.0157C17.2498 22.0157 15.8518 20.622 15.8518 18.8976C15.8518 17.1732 17.2498 15.7795 18.9795 15.7795H26.8225C28.5522 15.7795 29.9502 17.1732 29.9502 18.8976C29.9502 20.622 28.5522 22.0157 26.8225 22.0157H18.9795Z" fill="#000815"/>
</svg>
