<svg width="116" height="36" viewBox="0 0 116 36" fill="none" xmlns="http://www.w3.org/2000/svg">
<path d="M61.1341 9.04504C61.1341 10.3423 60.0831 11.3874 58.7785 11.3874C57.474 11.3874 56.423 10.3423 56.423 9.04504C56.423 7.74775 57.4377 6.7027 58.7785 6.7027C60.1194 6.73874 61.1341 7.78378 61.1341 9.04504ZM51.4221 13.7658C51.4221 13.982 51.4221 14.3423 51.4221 14.3423C51.4221 14.3423 50.2987 12.9009 47.9069 12.9009C43.9569 12.9009 40.8766 15.8919 40.8766 20.036C40.8766 24.1441 43.9207 27.1712 47.9069 27.1712C50.3349 27.1712 51.4221 25.6937 51.4221 25.6937V26.3063C51.4221 26.5946 51.6395 26.8108 51.9294 26.8108H54.8648V13.2613C54.8648 13.2613 52.1831 13.2613 51.9294 13.2613C51.6395 13.2613 51.4221 13.5135 51.4221 13.7658ZM51.4221 22.4504C50.8785 23.2432 49.7914 23.9279 48.4868 23.9279C46.1675 23.9279 44.3918 22.4865 44.3918 20.036C44.3918 17.5856 46.1675 16.1441 48.4868 16.1441C49.7551 16.1441 50.9148 16.8649 51.4221 17.6216V22.4504ZM57.0391 13.2613H60.518V26.8108H57.0391V13.2613ZM109.005 12.9009C106.614 12.9009 105.49 14.3423 105.49 14.3423V6.73874H102.011V26.8108C102.011 26.8108 104.693 26.8108 104.947 26.8108C105.237 26.8108 105.454 26.5586 105.454 26.3063V25.6937C105.454 25.6937 106.577 27.1712 108.969 27.1712C112.919 27.1712 115.999 24.1441 115.999 20.036C115.999 15.9279 112.919 12.9009 109.005 12.9009ZM108.426 23.8919C107.085 23.8919 106.034 23.2072 105.49 22.4144V17.5856C106.034 16.8649 107.193 16.1081 108.426 16.1081C110.745 16.1081 112.521 17.5495 112.521 20C112.521 22.4505 110.745 23.8919 108.426 23.8919ZM100.199 18.7748V26.8468H96.7204V19.1712C96.7204 16.9369 95.9957 16.036 94.0388 16.036C92.9879 16.036 91.9007 16.5766 91.2122 17.3694V26.8108H87.7333V13.2613H90.4874C90.7773 13.2613 90.9947 13.5135 90.9947 13.7658V14.3423C92.0094 13.2973 93.3502 12.9009 94.6911 12.9009C96.2131 12.9009 97.4815 13.3333 98.4961 14.1982C99.7282 15.2072 100.199 16.5045 100.199 18.7748ZM79.2896 12.9009C76.8979 12.9009 75.7745 14.3423 75.7745 14.3423V6.73874H72.2956V26.8108C72.2956 26.8108 74.9772 26.8108 75.2309 26.8108C75.5208 26.8108 75.7383 26.5586 75.7383 26.3063V25.6937C75.7383 25.6937 76.8616 27.1712 79.2534 27.1712C83.2034 27.1712 86.2837 24.1441 86.2837 20.036C86.3199 15.9279 83.2397 12.9009 79.2896 12.9009ZM78.7098 23.8919C77.369 23.8919 76.3181 23.2072 75.7745 22.4144V17.5856C76.3181 16.8649 77.4777 16.1081 78.7098 16.1081C81.0291 16.1081 82.8048 17.5495 82.8048 20C82.8048 22.4505 81.0291 23.8919 78.7098 23.8919ZM69.2878 12.9009C70.3387 12.9009 70.8823 13.0811 70.8823 13.0811V16.2883C70.8823 16.2883 67.9832 15.3153 66.1712 17.3694V26.8468H62.6923V13.2613C62.6923 13.2613 65.374 13.2613 65.6277 13.2613C65.9176 13.2613 66.135 13.5135 66.135 13.7658V14.3423C66.7873 13.5856 68.2006 12.9009 69.2878 12.9009ZM33.1578 25.5856C32.9766 25.1532 32.7954 24.6847 32.6142 24.2883C32.3243 23.6396 32.0344 23.027 31.7807 22.4504L31.7445 22.4144C29.244 17.009 26.5624 11.5315 23.7358 6.12613L23.627 5.90991C23.3371 5.36937 23.0472 4.79279 22.7573 4.21622C22.3949 3.56757 22.0325 2.88288 21.4527 2.23423C20.2931 0.792793 18.6261 0 16.8504 0C15.0385 0 13.4077 0.792793 12.2119 2.16216C11.6683 2.81081 11.2696 3.4955 10.9073 4.14414C10.6174 4.72072 10.3274 5.2973 10.0375 5.83784L9.92882 6.05405C7.13844 11.4595 4.42054 16.9369 1.92007 22.3423L1.88383 22.4144C1.63016 22.991 1.34025 23.6036 1.05034 24.2523C0.869147 24.6486 0.687954 25.0811 0.50676 25.5495C0.0356575 26.8829 -0.109297 28.1441 0.0718962 29.4414C0.470522 32.1441 2.28246 34.4144 4.78292 35.4234C5.72513 35.8198 6.70357 36 7.71826 36C8.00817 36 8.37055 35.964 8.66046 35.9279C9.85634 35.7838 11.0885 35.3874 12.2843 34.7027C13.7701 33.8739 15.1834 32.6847 16.7779 30.955C18.3724 32.6847 19.822 33.8739 21.2715 34.7027C22.4674 35.3874 23.6995 35.7838 24.8954 35.9279C25.1853 35.964 25.5477 36 25.8376 36C26.8523 36 27.867 35.8198 28.7729 35.4234C31.3096 34.4144 33.0853 32.1081 33.484 29.4414C33.7739 28.1802 33.6289 26.9189 33.1578 25.5856ZM16.8142 27.4595C14.8573 25.009 13.5889 22.7027 13.1541 20.7568C12.9729 19.9279 12.9366 19.2072 13.0453 18.5586C13.1178 17.982 13.3353 17.4775 13.6252 17.045C14.3137 16.0721 15.4733 15.4595 16.8142 15.4595C18.155 15.4595 19.3509 16.036 20.0032 17.045C20.2931 17.4775 20.5105 17.982 20.583 18.5586C20.6917 19.2072 20.6555 19.964 20.4743 20.7568C20.0394 22.6667 18.7711 24.973 16.8142 27.4595ZM31.2734 29.1532C31.0197 31.027 29.7514 32.6486 27.9757 33.3694C27.1059 33.7297 26.1637 33.8378 25.2215 33.7297C24.3156 33.6216 23.4096 33.3333 22.4674 32.7928C21.1628 32.0721 19.8582 30.955 18.3362 29.2973C20.7279 26.3784 22.1775 23.7117 22.7211 21.3333C22.9747 20.2162 23.011 19.2072 22.9023 18.2703C22.7573 17.3694 22.4312 16.5405 21.9238 15.8198C20.8004 14.1982 18.916 13.2613 16.8142 13.2613C14.7123 13.2613 12.8279 14.2342 11.7045 15.8198C11.1972 16.5405 10.871 17.3694 10.7261 18.2703C10.5811 19.2072 10.6174 20.2523 10.9073 21.3333C11.4508 23.7117 12.9366 26.4144 15.2921 29.3333C13.8064 30.991 12.4655 32.1081 11.1609 32.8288C10.2187 33.3694 9.31276 33.6577 8.40679 33.7658C7.42835 33.8739 6.48614 33.7297 5.65265 33.4054C3.87696 32.6847 2.6086 31.0631 2.35493 29.1892C2.24622 28.2883 2.31869 27.3874 2.68108 26.3784C2.7898 26.018 2.97099 25.6577 3.15218 25.2252C3.40585 24.6486 3.69576 24.036 3.98567 23.4234L4.02191 23.3514C6.52238 17.982 9.20404 12.5045 11.9944 7.17117L12.1031 6.95495C12.393 6.41441 12.683 5.83784 12.9729 5.2973C13.2628 4.72072 13.5889 4.18018 13.9875 3.71171C14.7486 2.84685 15.7632 2.37838 16.8866 2.37838C18.01 2.37838 19.0247 2.84685 19.7857 3.71171C20.1844 4.18018 20.5105 4.72072 20.8004 5.2973C21.0903 5.83784 21.3802 6.41441 21.6701 6.95495L21.7789 7.17117C24.533 12.5405 27.2147 18.018 29.7151 23.3874V23.4234C30.005 24 30.2587 24.6486 30.5486 25.2252C30.7298 25.6577 30.911 26.018 31.0197 26.3784C31.3096 27.3153 31.4184 28.2162 31.2734 29.1532Z" fill="#000815"/>
</svg>
