<svg width="122" height="36" viewBox="0 0 122 36" fill="none" xmlns="http://www.w3.org/2000/svg">
<path fill-rule="evenodd" clip-rule="evenodd" d="M0 0H25.0153V36H0V0ZM3.60555 32.3759H21.3973V3.62552H3.60555V32.3759Z" fill="#000815"/>
<path fill-rule="evenodd" clip-rule="evenodd" d="M40.0845 16.1517C38.0519 13.268 36.0361 10.4024 34.0229 7.16388H34.0084V16.1517H32.2979V3.61994H33.8466C35.8792 6.4834 37.8923 9.32873 39.8866 12.5506H39.922V3.61994H41.6325V16.1517H40.0845ZM45.6976 11.1917C46.1939 9.54418 46.6937 8.02285 47.1401 6.08878H47.1762C47.6746 8.02285 48.121 9.54487 48.584 11.1917H45.6976ZM46.5153 3.61994L42.2045 16.1517H44.0579L45.1422 12.7311H48.9054L49.8849 16.1517H52.2749L48.2987 3.61994H46.5153ZM54.2873 16.1517V5.30093H51.0066V3.61994H59.704V5.30093H56.4261V16.1517H54.2873ZM60.3975 3.61994H62.5216V16.1517H60.3975V3.61994ZM69.1163 14.5739C66.8859 14.5739 66.1022 12.1037 66.1022 9.70454C66.1022 7.39606 66.9928 5.19356 69.1163 5.19356C71.237 5.19356 72.1249 7.39606 72.1249 9.70454C72.1249 12.1037 71.3425 14.5739 69.1163 14.5739ZM69.1163 16.3636C72.3768 16.3636 74.408 13.4472 74.408 9.70384C74.408 6.19615 72.1658 3.40381 69.1163 3.40381C66.0696 3.40381 63.8177 6.19615 63.8177 9.70384C63.8184 13.4479 65.853 16.3636 69.1163 16.3636ZM83.4989 16.1517C81.465 13.268 79.4505 10.4024 77.4388 7.16388H77.4214V16.1517H75.7131V3.61994H77.2625C79.2922 6.4834 81.3067 9.32873 83.2997 12.5506H83.3365V3.61994H85.049V16.1517H83.4989ZM89.112 11.1917C89.6125 9.54418 90.1089 8.02285 90.5573 6.08878H90.5927C91.0918 8.02285 91.5361 9.54487 91.9984 11.1917H89.112ZM89.9339 3.61994L85.621 16.1517H87.4759L88.5602 12.7311H92.3226L93.3028 16.1517H95.69L91.7145 3.61994H89.9339ZM96.3113 3.61994H98.4362V14.4679H102.658V16.1517H96.3113V3.61994ZM40.317 26.6336V31.8056C39.1751 32.2553 37.9804 32.5753 36.7719 32.5753C33.099 32.5753 30.7825 29.7111 30.7825 26.0229C30.7825 22.6023 33.099 19.6141 36.842 19.6141C37.9985 19.6141 39.1578 20.0456 39.8714 20.5818L39.1758 22.0676C38.6066 21.7127 37.7132 21.408 36.8947 21.408C34.6151 21.408 33.0629 23.2166 33.0629 26.0633C33.0629 29.0327 34.8462 30.7855 36.6823 30.7855C37.2502 30.7855 37.734 30.7172 38.1817 30.4822V26.6336H40.317ZM47.9669 21.5154H44.3981V24.9505H47.8912V26.6336H44.3981V30.6768H48.6041V32.3619H42.2579V19.8295H47.9669V21.5154ZM54.5608 30.7848C52.3304 30.7848 51.5453 28.3167 51.5453 25.9162C51.5453 23.6091 52.4366 21.4073 54.5608 21.4073C56.6801 21.4073 57.5694 23.6091 57.5694 25.9162C57.5694 28.3167 56.7836 30.7848 54.5608 30.7848ZM54.5608 32.5753C57.8207 32.5753 59.8511 29.6574 59.8511 25.9155C59.8511 22.4078 57.6069 19.6134 54.5608 19.6134C51.5092 19.6134 49.2663 22.4078 49.2663 25.9155C49.2657 29.6581 51.294 32.5753 54.5608 32.5753ZM70.1159 26.6336V31.8056C68.974 32.2553 67.7828 32.5753 66.5694 32.5753C62.8993 32.5753 60.5807 29.7111 60.5807 26.0229C60.5807 22.6023 62.8993 19.6141 66.6423 19.6141C67.8015 19.6141 68.958 20.0456 69.6696 20.5818L68.974 22.0676C68.4034 21.7127 67.5176 21.408 66.6964 21.408C64.4119 21.408 62.8611 23.2166 62.8611 26.0633C62.8611 29.0327 64.6451 30.7855 66.4812 30.7855C67.0532 30.7855 67.5322 30.7172 67.9792 30.4822V26.6336H70.1159ZM74.2199 21.5154H75.1619C76.4239 21.5154 77.1389 22.246 77.1389 23.5366C77.1389 25.2176 76.1247 25.9685 75.1077 26.0222C74.8932 26.0438 74.3934 26.0619 74.2199 26.0772V21.5154ZM79.6365 32.3619L77.1188 27.1726C78.4911 26.4405 79.2797 24.9505 79.2797 23.4466C79.2797 21.0099 77.7977 19.8295 75.409 19.8295H72.0763V32.3619H74.2199V27.6362H75.1813L77.1917 32.3619H79.6365ZM83.1643 27.4026C83.6621 25.753 84.1612 24.2331 84.6082 22.2997H84.6436C85.1427 24.2331 85.587 25.753 86.0507 27.4026H83.1643ZM83.9828 19.8295L79.6685 32.3619H81.5219L82.6104 28.9414H86.3728L87.3474 32.3619H89.7403L85.7633 19.8295H83.9828ZM93.7491 19.8295H90.4164V32.3619H92.5558V27.6362H93.5159C96.0663 27.6362 97.6185 25.5592 97.6185 23.4466C97.6185 21.0092 96.1378 19.8295 93.7491 19.8295ZM93.4492 26.0229C93.2271 26.0431 92.7051 26.0598 92.5558 26.0744V21.5154H93.5159C94.7633 21.5154 95.479 22.246 95.479 23.5366C95.479 25.2176 94.4662 25.9692 93.4492 26.0229ZM107.526 32.3619H105.388V26.331H100.947V32.3619H98.8319V19.8295H100.947V24.6452H105.388V19.8651H107.526V32.3619ZM109.574 19.8295H111.7V32.3619H109.574V19.8295ZM121.32 22.1045C120.803 21.7817 119.951 21.4073 119.127 21.4073C116.949 21.4073 115.369 23.2159 115.369 26.0626C115.369 29.032 117.114 30.7848 119.182 30.7848C119.94 30.7812 120.68 30.5638 121.32 30.1573L121.91 31.7163C121.265 32.1632 120.128 32.5753 119.096 32.5753C115.423 32.5753 113.104 29.7111 113.104 26.0229C113.104 22.6023 115.403 19.6141 119.127 19.6141C120.235 19.6141 121.265 20.0826 122 20.5818L121.32 22.1045Z" fill="#000815"/>
</svg>
